<svg width="9" height="12" viewBox="0 0 9 12" fill="none" xmlns="http://www.w3.org/2000/svg">
<path d="M4.2115 0C3.93536 0 3.7115 0.223858 3.7115 0.5V9.01977L1.46628 6.803C1.27155 6.61073 0.958431 6.61073 0.763698 6.803L0.360366 7.20122C0.162089 7.39699 0.162089 7.71706 0.360367 7.91282L4.14871 11.6532C4.34344 11.8454 4.65656 11.8454 4.85129 11.6532L8.63963 7.91282C8.83791 7.71706 8.83791 7.39699 8.63963 7.20122L8.2363 6.803C8.04157 6.61073 7.72845 6.61073 7.53372 6.803L5.2885 9.01977V0.5C5.2885 0.223857 5.06464 0 4.7885 0H4.2115Z" fill="#333333"/>
</svg>
