<svg width="30" height="30" viewBox="0 0 30 30" fill="none" xmlns="http://www.w3.org/2000/svg">
<path d="M1 1H14V29H1V1Z" stroke="#FAFAFA" stroke-width="2"/>
<path d="M29 7.5C29 11.0899 26.0899 14 22.5 14C18.9101 14 16 11.0899 16 7.5C16 3.91015 18.9101 1 22.5 1C26.0899 1 29 3.91015 29 7.5Z" stroke="#FAFAFA" stroke-width="2"/>
<path d="M29 22.5C29 26.0899 26.0899 29 22.5 29C18.9101 29 16 26.0899 16 22.5C16 18.9101 18.9101 16 22.5 16C26.0899 16 29 18.9101 29 22.5Z" stroke="#FAFAFA" stroke-width="2"/>
</svg>
