<svg width="56" height="56" viewBox="0 0 56 56" fill="none" xmlns="http://www.w3.org/2000/svg">
<circle opacity="0.1" cx="28" cy="28" r="27" fill="#333333" stroke="#333333" stroke-width="2"/>
<path opacity="0.3" d="M23 48C23 48 23.9526 47 28 47C32.0474 47 33 48 33 48" stroke="#333333" stroke-width="2" stroke-linecap="round" stroke-linejoin="round"/>
<path opacity="0.3" d="M21 30C20.337 30 19.7011 30.4214 19.2322 31.1716C18.7634 31.9217 18.5 32.9391 18.5 34C18.5 35.0609 18.7634 36.0783 19.2322 36.8284C19.7011 37.5786 20.337 38 21 38C21.3283 38 21.6534 37.8965 21.9567 37.6955C22.26 37.4945 22.5356 37.1999 22.7678 36.8284C22.9999 36.457 23.1841 36.016 23.3097 35.5307C23.4353 35.0454 23.5 34.5253 23.5 34C23.5 33.4747 23.4353 32.9546 23.3097 32.4693C23.1841 31.984 22.9999 31.543 22.7678 31.1716C22.5356 30.8001 22.26 30.5055 21.9567 30.3045C21.6534 30.1035 21.3283 30 21 30ZM35 30C34.337 30 33.7011 30.4214 33.2322 31.1716C32.7634 31.9217 32.5 32.9391 32.5 34C32.5 35.0609 32.7634 36.0783 33.2322 36.8284C33.7011 37.5786 34.337 38 35 38C35.663 38 36.2989 37.5786 36.7678 36.8284C37.2366 36.0783 37.5 35.0609 37.5 34C37.5 32.9391 37.2366 31.9217 36.7678 31.1716C36.2989 30.4214 35.663 30 35 30Z" fill="#333333"/>
</svg>
