<svg width="16" height="16" viewBox="0 0 16 16" fill="none" xmlns="http://www.w3.org/2000/svg">
<path d="M6.22114 0C9.65006 0 12.4423 2.79222 12.4423 6.22114C12.4423 7.71081 11.9198 9.07655 11.0425 10.1482L16 15.1057L15.1057 16L10.1482 11.0425C9.07655 11.9198 7.71081 12.4423 6.22114 12.4423C2.79222 12.4423 0 9.65006 0 6.22114C0 2.79222 2.79222 0 6.22114 0ZM6.22114 1.24423C3.46537 1.24423 1.24423 3.46537 1.24423 6.22114C1.24423 8.97691 3.46537 11.1981 6.22114 11.1981C8.97691 11.1981 11.1981 8.97691 11.1981 6.22114C11.1981 3.46537 8.97691 1.24423 6.22114 1.24423Z" fill="#333333"/>
</svg>
