<svg width="16" height="12" viewBox="0 0 16 12" fill="none" xmlns="http://www.w3.org/2000/svg">
<path d="M1.99747 2.44797C2.01625 2.26242 1.94549 2.07903 1.80694 1.95414L0.395608 0.253968V0H4.7778L8.165 7.42857L11.1429 0H15.3205V0.253968L14.1138 1.41093C14.0097 1.49023 13.9581 1.62056 13.9797 1.74956V10.2504C13.9581 10.3794 14.0097 10.5098 14.1138 10.5891L15.2922 11.746V12H9.36463V11.746L10.5854 10.5608C10.7054 10.4409 10.7054 10.4056 10.7054 10.2222V3.35097L7.31114 11.9718H6.85246L2.90073 3.35097V9.12875C2.86778 9.37166 2.94845 9.61622 3.11948 9.79189L4.70723 11.7178V11.9718H0.205078V11.7178L1.79283 9.79189C1.96261 9.61593 2.03858 9.36975 1.99747 9.12875V2.44797Z" fill="white"/>
</svg>
