<svg width="16" height="13" viewBox="0 0 16 13" fill="none" xmlns="http://www.w3.org/2000/svg">
<path d="M16 1.53267C15.4018 1.80043 14.7991 1.99893 14.1339 2.06357C14.7991 1.66655 15.3348 0.997159 15.5982 0.267756C14.933 0.664773 14.2679 0.932529 13.5357 1.06641C12.8661 0.401634 12 0 11.067 0C9.26786 0 7.79911 1.46804 7.79911 3.26847C7.79911 3.53161 7.79911 3.79936 7.86607 4.00249C4.42857 4.00249 2.07143 1.99893 0.473215 0C0.138393 0.466264 0.004464 1.06641 0.004464 1.66655C0.004464 2.79759 0.607143 3.79936 1.47321 4.3995C0.937501 4.33487 0.40625 4.20099 0.004464 4.00249C0.004464 4.00249 0.004464 4.00249 0.004464 4.06712C0.004464 5.66903 1.13839 6.99858 2.60714 7.26634C2.33929 7.33097 2.07143 7.40021 1.73661 7.40021C1.54018 7.40021 1.33929 7.40021 1.13839 7.33558C1.54018 8.66975 3.40179 10.2024 4.86607 10.2024C3.73214 11.0657 2.67857 11.8182 0.571429 11.8182C0.303571 11.8182 0.517857 11.8182 0 11.8182C1.46429 12.7507 3.20089 13 5 13C11.067 13 14.3348 8.00035 14.3348 3.66548C14.3348 3.5316 14.3348 3.40234 14.3348 3.26847C15 2.79759 15.5357 2.20206 16 1.53267Z" fill="white"/>
</svg>
