<svg width="14" height="14" viewBox="0 0 14 14" fill="none" xmlns="http://www.w3.org/2000/svg">
<path fill-rule="evenodd" clip-rule="evenodd" d="M0 2.5C0 1.12502 1.12502 0 2.5 0H11.5C12.875 0 14 1.12502 14 2.5V11.5C14 12.875 12.875 14 11.5 14H2.5C1.12502 14 0 12.875 0 11.5V2.5ZM8.99997 9.0001L9.0477 13.9953H6.99997V9.0001L5.49463 8.99533V6.99533L6.99997 7.0001V5.64667C6.99997 3.96329 7.98719 3.05176 9.50175 3.05176C10.2272 3.05176 10.8511 3.10375 11.0334 3.12822V4.88923H9.98202C9.15868 4.88923 8.99997 5.27729 8.99997 5.84739V7.0001L11.0118 6.99533L10.7561 9.00488L8.99997 9.0001Z" fill="white"/>
</svg>
